# xmcd
#
# Track frame offsets: 
#        150
#        13662
#        30939
#        46427
#        61048
#        77058
#        92726
#        105934
#        121935
#        136369
#        150535
#        166376
#        178151
#        193774
#        209756
#        222953
#        240261
#        258258
#        272198
#        289314
#        303703
#        320829
#        326944
#        334011
#        341376
#
# Disc length: 4667 seconds
#
# Revision: 1
# Processed by: cddbd v1.5.1PL2 Copyright (c) Steve Scherf et al.
# Submitted via: ExactAudioCopy v0.95a5
#
DISCID=6e123919
DTITLE=Various Artist - News 2005
DYEAR=2005
DGENRE=Party
TTITLE0=Die LuderZ feat. DJ Mox - Michel aus Tirol (Party)
TTITLE1=Chris Marlow - Looking for freedom (Dance-Fox)
TTITLE2=Ede W. meets NDC - Jamaica (Reaggea-Party)
TTITLE3=Lollies feat. Die Weltmeister - Juergen Klinsmann ueber alle (
TTITLE3=Party-Hymne)
TTITLE4=Peter Markus - Nur mein Herz entscheidet sich (Fox)
TTITLE5=Partyschweine - Tut mir leid, ich bin breit (...Popo packen) (
TTITLE5=Party)
TTITLE6=Magic Lauster - Egal, egal (...dann kuess' ich Dich beim naech
TTITLE6=sten Mal) (Fox)
TTITLE7=Steve Young - Barri Tikki Tomba (Party-Fox)
TTITLE8=Marcus Sommer - Rest der Welt (Party)
TTITLE9=Handclubbers feat. DJ Chris and DJ Alex - Drunken sailor (..what
TTITLE9=shall we do) (Party-Dance)
TTITLE10=NDC - Music is my destiny (Rock-Pop)
TTITLE11=Die Palmenwedler - Mein bester Freund (Mallorca-Mix) (Fun)
TTITLE12=Project N - I'm the only girl (Dance)
TTITLE13=Marcus Sommer - Kuess' mich (Fox)
TTITLE14=DJ Mox - Heit' is' schee (Party)
TTITLE15=Peter Markus - Vielleicht ein bisschen mehr (Fox)
TTITLE16=Magic Lauster - Nur fuer Dich (Ballade)
TTITLE17=Papaoke - Wir machen Party (Party)
TTITLE18=Papa Joe - Mama loo (Marlow-Mix) (Oldie-Remake)
TTITLE19=Dr. Click - Hey little Party-Girl (Ey-ah-eh-oh) (Dance)
TTITLE20=Double U - Auf der Strasse nach Sueden (Dt. Version von ''Loo
TTITLE20=king for freedom'') (Party-Dance-Fox)
TTITLE21=Lollies - Ich will Spaß
TTITLE22=Lollies - Sternenhimmel
TTITLE23=Lollies - Nur geträumt
TTITLE24=Lollies - Major Tom (..völlig losgelöst)
EXTD=YEAR: 2005
EXTT0=
EXTT1=
EXTT2=
EXTT3=
EXTT4=
EXTT5=
EXTT6=
EXTT7=
EXTT8=
EXTT9=
EXTT10=
EXTT11=
EXTT12=
EXTT13=
EXTT14=
EXTT15=
EXTT16=
EXTT17=
EXTT18=
EXTT19=
EXTT20=
EXTT21=
EXTT22=
EXTT23=
EXTT24=
PLAYORDER=
